<?xml version="1.0" encoding="UTF-8"?>
<svg id="Capa_1" data-name="Capa 1" xmlns="http://www.w3.org/2000/svg" viewBox="0 0 1920 646">
  <defs>
    <style>
      .cls-1 {
        fill: #6d3914;
      }
    </style>
  </defs>
  <g>
    <path class="cls-1" d="m883.54,209.1c-1.25,10-1.87,17.95-1.87,23.86s.72,11.37,2.16,16.36c1.44,5,3.51,9.32,6.2,12.97,5.77,7.78,13.07,11.68,21.91,11.68,16.91,0,25.37-9.32,25.37-27.97,0-14.99-8.7-30.9-26.09-47.71l-14.99-14.56c-13.17-12.69-22.15-22.87-26.96-30.56-9.51-15.18-14.27-30.27-14.27-45.26,0-12.2,3.94-22.44,11.82-30.7,9.51-10.09,23.21-15.14,41.08-15.14,7.01,0,12.3.34,15.86,1.01,6.63,1.25,11.05,1.87,13.26,1.87,5.57,0,9.9-1.73,12.97-5.19,1.15-1.25,2.4-2.88,3.75-4.9,7.01,3.94,10.52,18.4,10.52,43.39,0,15.95-1.59,27.73-4.76,35.32-1.06,2.59-2.26,4.23-3.6,4.9-1.54-14.51-6.25-27.48-14.13-38.92-9.23-13.45-19.89-20.18-32-20.18-10.38,0-16.77,4.76-19.17,14.27-.67,2.69-1.01,6.03-1.01,10.02s1.2,8.53,3.6,13.62c2.4,5.09,5.55,10.16,9.44,15.21s8.38,10.12,13.48,15.21c15.37,15.76,25.59,26.43,30.63,32,5.04,5.57,9.54,11.34,13.48,17.3,8.65,13.36,12.97,26.29,12.97,38.78,0,15.09-5.86,27.58-17.59,37.48-12.11,10.09-27.68,15.14-46.71,15.14-15.76,0-29.31-3.94-40.65-11.82-12.49-8.65-18.74-20.08-18.74-34.31,3.75-13.36,11.92-23.16,24.51-29.41,3.36-1.73,6.53-2.98,9.51-3.75Z"/>
    <path class="cls-1" d="m987.77,129.82c-2.31-5.57-3.46-12.16-3.46-19.75s.29-13.81.87-18.67c.58-4.85,1.34-9.25,2.31-13.19,2.31-8.84,5.14-13.26,8.5-13.26h127c5.57,0,9.32,8.27,11.24,24.79.48,4.61.72,9.37.72,14.27,0,11.53-1.25,20.13-3.75,25.8-8.27-25.66-18.98-42.09-32.15-49.3-2.98-1.73-5.91-2.59-8.79-2.59s-5.14.75-6.78,2.23c-1.63,1.49-2.98,3.87-4.04,7.14-1.73,5.77-2.59,12.69-2.59,20.76v54.06l.14,44.11v41.8c0,9.42,1.22,16.36,3.68,20.83,2.45,4.47,4.95,7.86,7.5,10.16,2.55,2.31,5.55,4.47,9.01,6.49h-73.66c6.92-5.67,11.34-10.33,13.26-13.98,3.55-6.63,5.33-14.46,5.33-23.5V118.14c0-15.09-.58-24.82-1.73-29.19-1.15-4.37-2.55-7.3-4.18-8.79-1.63-1.49-3.89-2.23-6.77-2.23s-5.82.84-8.79,2.52c-2.98,1.68-5.89,3.89-8.72,6.63-2.84,2.74-5.53,5.91-8.07,9.51-2.55,3.6-4.88,7.33-6.99,11.17-4.13,7.59-7.16,14.94-9.08,22.06Z"/>
    <path class="cls-1" d="m1267.42,211.55l.72-55.35c0-38.73-1.44-63.47-4.32-74.24-1.35-5.19-2.96-8.98-4.83-11.39-1.87-2.4-3.39-4.28-4.54-5.62h47.28l-3.03,4.04c-4.33,6.34-6.73,13.5-7.21,21.48-.48,7.98-.84,16.05-1.08,24.22-.24,8.17-.46,16.29-.65,24.36-.19,13.55-.29,28.69-.29,45.41v17.59c0,31.04-5,53.29-14.99,66.74-9.9,13.07-26.04,19.6-48.43,19.6-43.34,0-64.92-27.82-64.72-83.46l.14-107.97c0-15.18-2.69-25.85-8.07-32h54.63c-5.67,6.82-8.5,16.53-8.5,29.12,0,7.3-.05,14.8-.14,22.49l-.58,46.13c-.1,7.59-.14,15.42-.14,23.5,0,28.93.87,47.26,2.59,54.99,1.73,7.74,3.84,13.77,6.34,18.09,5.77,9.8,14.32,14.7,25.66,14.7,17.49,0,28.25-12.78,32.29-38.34,1.25-7.59,1.87-15.62,1.87-24.07Z"/>
    <path class="cls-1" d="m1326.96,285.5c3.07-7.3,4.88-13.41,5.41-18.31.53-4.9.98-10.14,1.37-15.71.77-11.34,1.15-26.57,1.15-45.7,0-23.16-.38-44.3-1.15-63.43l-1.58-39.64c-.39-9.99-1.25-16.96-2.59-20.9-2.12-6.25-5.58-11.87-10.38-16.87h79.14c32.87,0,54.35,12.93,64.44,38.78,3.55,9.13,5.33,20.18,5.33,33.15,0,72.56-24.6,118.78-73.81,138.67-16.63,6.73-36.18,10.09-58.67,10.09h-4.32c-1.44,0-2.88-.05-4.32-.14Zm40.07-181.78l.14,143.58c.09,5.48.72,9.61,1.87,12.4,1.15,2.79,3.55,4.18,7.21,4.18,17.1,0,30.42-10.86,39.93-32.58,9.23-21.14,13.84-50.45,13.84-87.93,0-19.7-2.31-34.64-6.92-44.83-6.25-13.74-17.11-20.61-32.58-20.61-9.9,0-15.98,1.15-18.24,3.46-2.26,2.31-3.7,5.17-4.32,8.58-.63,3.41-.94,8-.94,13.77Z"/>
    <path class="cls-1" d="m1555.29,64.95c-3.56,8.94-5.62,17.9-6.2,26.88-.58,8.99-1.01,16.7-1.3,23.14-.29,6.44-.53,13.12-.72,20.04-.29,16.15-.43,30.85-.43,44.11,0,54.4,2.02,87.74,6.05,100.04.67,2.12,1.54,4.23,2.59,6.34h-49.73c2.98-6.53,4.76-12.44,5.33-17.73.58-5.28,1.1-11.58,1.58-18.88,1.15-15.09,1.73-32.48,1.73-52.18s-.05-33.18-.14-40.43c-.1-7.25-.24-14.34-.43-21.26-.67-33.73-2.69-55.16-6.05-64.29l-2.02-5.77h49.73Z"/>
    <path class="cls-1" d="m1673.21,288.39c-25.56,0-44.83-12.01-57.8-36.04-12.49-23.16-18.74-56.31-18.74-99.46s13.79-73.13,41.37-84.76c9.71-4.04,21.43-6.05,35.17-6.05,39.4,0,63.47,17.49,72.22,52.47,2.88,11.24,4.33,25.71,4.33,43.39s-1.54,34.91-4.61,51.68c-3.08,16.77-7.78,31.02-14.13,42.74-12.97,24.03-32.24,36.04-57.8,36.04Zm.29-14.42c18.45,0,30.37-22.49,35.75-67.46,1.82-15.18,2.74-33.06,2.74-53.62,0-50.93-12.93-76.4-38.78-76.4s-38.78,25.47-38.78,76.4c0,60.06,7.74,97.98,23.21,113.74,4.8,4.9,10.09,7.35,15.86,7.35Z"/>
    <path class="cls-1" d="m985.6,351.56c0,16.15-11.82,29.41-35.46,39.79,19.6,3.65,32.38,12.54,38.34,26.67,1.92,4.71,2.88,10.93,2.88,18.67s-1.13,16.1-3.39,25.08c-2.26,8.99-5.82,17.44-10.67,25.37-4.85,7.93-11.03,15.16-18.52,21.69-7.5,6.54-16.48,12.16-26.96,16.87-22.01,9.9-49.21,14.85-81.59,14.85,3.07-7.3,4.88-13.41,5.41-18.31.53-4.9.98-10.14,1.37-15.71.77-11.34,1.15-26.57,1.15-45.7,0-23.16-.38-44.3-1.15-63.43l-1.59-39.64c-.39-9.99-1.25-16.96-2.59-20.9-2.11-6.25-5.57-11.87-10.38-16.87h76.26c23.26,0,40.07,2.31,50.45,6.92,10.96,4.81,16.43,13.02,16.43,24.65Zm-46.2,24.65c2.93-2.88,5.02-5.96,6.27-9.23,1.25-3.27,1.87-6.32,1.87-9.15s-.41-5.69-1.23-8.58c-.82-2.88-2.43-5.43-4.83-7.64-5.38-4.8-14.61-7.21-27.68-7.21-9.9,0-15.81.99-17.73,2.96-1.92,1.97-3.12,4.59-3.6,7.86-.48,3.27-.72,7.47-.72,12.61s.14,9.42.43,12.83c.29,3.41,1.06,6.27,2.31,8.58,2.4,4.71,7.33,7.06,14.78,7.06s13.6-.96,18.45-2.88c4.85-1.92,8.74-4.32,11.68-7.21Zm-47.64,50.02l.14,73.23c0,5.48.6,9.61,1.8,12.4,1.2,2.79,3.63,4.18,7.28,4.18,14.8,0,27.15-7.01,37.05-21.05,10.19-14.42,15.28-33.16,15.28-56.22,0-11.44-2.55-19.94-7.64-25.52-6.73-7.4-18.79-11.1-36.18-11.1-3.94,0-7.06.17-9.37.5-2.31.34-4.09,1.27-5.33,2.81-2.02,2.5-3.03,9.42-3.03,20.76Z"/>
    <path class="cls-1" d="m1131.48,487.21c2.59,3.56,3.89,8.7,3.89,15.42s-.29,12.09-.87,16.07c-.58,3.99-1.49,7.62-2.74,10.88-2.88,7.3-6.68,10.96-11.39,10.96h-116.76c7.4-3.94,12.3-7.73,14.7-11.39,4.52-6.82,6.78-15.47,6.78-25.95-.1-25.66-.14-48.87-.14-69.63v-75.82c0-14.32-2.26-24.7-6.78-31.14-1.73-2.31-3.8-4.52-6.2-6.63h108.4c6.53,2.31,11,10.38,13.41,24.22.67,3.85,1.01,7.59,1.01,11.24,0,7.5-1.11,13.46-3.32,17.87l-7.78-15.57c-5.19-10.19-12.64-17.01-22.34-20.47-5.38-1.92-11.44-2.88-18.16-2.88s-11.53.22-14.42.65c-2.88.43-5.09,1.47-6.63,3.1-2.5,2.79-3.75,8.1-3.75,15.93s.19,13.26.58,16.29c.38,3.03,1.3,5.5,2.74,7.42,2.98,3.75,9.27,5.62,18.88,5.62h45.26c-2.21,5.57-4.47,9.51-6.78,11.82-4.61,4.61-10.86,6.92-18.74,6.92-3.08,0-6.01-.34-8.79-1.01-5.19-1.25-9.75-1.87-13.69-1.87s-7.19.36-9.73,1.08c-2.55.72-4.54,1.85-5.98,3.39-2.5,2.69-3.75,7.55-3.75,14.56v68.76c0,18.07,1.01,28.78,3.03,32.15,2.02,3.36,4.47,5.36,7.35,5.98,2.88.63,7.69.94,14.42.94s12.83-.96,18.31-2.88c5.48-1.92,10.07-4.61,13.77-8.07,3.7-3.46,6.75-7.57,9.15-12.32,2.4-4.76,4.76-9.97,7.06-15.64Z"/>
    <path class="cls-1" d="m1273.62,487.21c2.59,3.75,3.89,8.27,3.89,13.55s-.36,9.85-1.08,13.69c-.72,3.84-1.71,7.5-2.96,10.96-2.88,7.59-6.54,12.64-10.96,15.14h-115.9c7.59-4.71,12.54-8.79,14.85-12.25,4.42-6.53,6.63-14.99,6.63-25.37-.1-25.56-.14-48.67-.14-69.34v-75.54c0-13.93-2.31-24.17-6.92-30.7-1.63-2.4-3.65-4.85-6.05-7.35h59.25c-5.67,8.17-8.89,16.58-9.66,25.23-.19,2.88-.29,6.05-.29,9.51v132.04c0,17.97.96,28.71,2.88,32.22,1.92,3.51,4.23,5.57,6.92,6.2,2.69.63,6.77.94,12.25.94s10.67-.96,15.57-2.88c4.9-1.92,9.27-4.61,13.12-8.07,6.53-5.96,12.73-15.28,18.6-27.96Z"/>
    <path class="cls-1" d="m1404.94,487.21c2.59,3.75,3.89,8.27,3.89,13.55s-.36,9.85-1.08,13.69c-.72,3.84-1.71,7.5-2.96,10.96-2.88,7.59-6.54,12.64-10.96,15.14h-115.9c7.59-4.71,12.54-8.79,14.85-12.25,4.42-6.53,6.63-14.99,6.63-25.37-.1-25.56-.14-48.67-.14-69.34v-75.54c0-13.93-2.31-24.17-6.92-30.7-1.63-2.4-3.65-4.85-6.05-7.35h59.25c-5.67,8.17-8.89,16.58-9.66,25.23-.19,2.88-.29,6.05-.29,9.51v132.04c0,17.97.96,28.71,2.88,32.22,1.92,3.51,4.23,5.57,6.92,6.2,2.69.63,6.77.94,12.25.94s10.67-.96,15.57-2.88c4.9-1.92,9.27-4.61,13.12-8.07,6.53-5.96,12.73-15.28,18.6-27.96Z"/>
    <path class="cls-1" d="m1499.94,543.43c-25.56,0-44.83-12.01-57.8-36.04-12.49-23.16-18.74-56.31-18.74-99.46s13.79-73.13,41.37-84.76c9.71-4.04,21.43-6.05,35.17-6.05,39.4,0,63.47,17.49,72.22,52.47,2.88,11.24,4.33,25.71,4.33,43.39s-1.54,34.91-4.61,51.68c-3.08,16.77-7.78,31.02-14.13,42.74-12.97,24.03-32.24,36.04-57.8,36.04Zm.29-14.42c18.45,0,30.37-22.49,35.75-67.46,1.82-15.18,2.74-33.06,2.74-53.62,0-50.93-12.93-76.4-38.78-76.4s-38.78,25.47-38.78,76.4c0,60.06,7.74,97.98,23.21,113.74,4.8,4.9,10.09,7.35,15.86,7.35Z"/>
    <path class="cls-1" d="m1600.12,384.86c-2.31-5.57-3.46-12.16-3.46-19.75s.29-13.81.87-18.67c.58-4.85,1.34-9.25,2.31-13.19,2.31-8.84,5.14-13.26,8.5-13.26h127c5.57,0,9.32,8.27,11.24,24.79.48,4.61.72,9.37.72,14.27,0,11.53-1.25,20.13-3.75,25.8-8.27-25.66-18.98-42.09-32.15-49.3-2.98-1.73-5.91-2.59-8.79-2.59s-5.14.75-6.78,2.23c-1.63,1.49-2.98,3.87-4.04,7.14-1.73,5.77-2.59,12.69-2.59,20.76v54.06l.14,44.11v41.8c0,9.42,1.22,16.36,3.68,20.83,2.45,4.47,4.95,7.86,7.5,10.16,2.55,2.31,5.55,4.47,9.01,6.49h-73.66c6.92-5.67,11.34-10.33,13.26-13.98,3.55-6.63,5.33-14.46,5.33-23.5v-129.88c0-15.09-.58-24.82-1.73-29.19-1.15-4.37-2.55-7.3-4.18-8.79-1.63-1.49-3.89-2.23-6.77-2.23s-5.82.84-8.79,2.52c-2.98,1.68-5.89,3.89-8.72,6.63-2.84,2.74-5.53,5.91-8.07,9.51-2.55,3.6-4.88,7.33-6.99,11.17-4.13,7.59-7.16,14.94-9.08,22.06Z"/>
    <path class="cls-1" d="m1866.8,540.54c1.25-6.05,1.87-10.88,1.87-14.49s-.07-6.32-.22-8.14c-.14-1.82-.34-3.77-.58-5.84-.24-2.07-.53-4.37-.86-6.92-.34-2.54-.65-5.5-.94-8.87-2.21-22.97-10.04-41.85-23.5-56.65-5.96-6.53-12.4-11.51-19.32-14.92-6.92-3.41-12.61-5.12-17.08-5.12s-7.91.29-10.31.86c-5.38,16.15-8.07,33.01-8.07,50.6,0,15.57.82,27.2,2.45,34.88,2.59,11.53,6.58,23.11,11.96,34.74h-43.1c2.31-5.77,3.46-17.9,3.46-36.4s1.39-35.8,4.18-51.9c2.79-16.1,6.41-30.44,10.88-43.03,4.47-12.59,9.46-23.62,14.99-33.08,5.53-9.46,11.05-17.73,16.58-24.79,5.53-7.06,10.74-13.12,15.64-18.16s8.99-9.49,12.25-13.33h45.41c-4.13,4.71-6.2,11.29-6.2,19.75,0,3.85.62,10.14,1.87,18.88l3.6,26.24c13.17,90.72,24.94,142.62,35.32,155.68h-50.31Zm-65.01-135.36c3.75-1.44,7.69-2.16,11.82-2.16s7.86.29,11.17.87,6.61,1.54,9.88,2.88c7.01,2.69,12.88,6.97,17.59,12.83-4.71-24.7-7.59-39.79-8.65-45.26l-5.05-25.23-8.22,9.8c-11.53,13.84-21.05,29.26-28.54,46.27Z"/>
  </g>
  <g>
    <path class="cls-1" d="m143.58,333.82c0-5.05.88-9.89,2.46-14.41-8.16,3.12-15.87,6.87-22.49,11.39-12.21,8.34-20.9,31.51-20.26,53.97,1.4,5.14,22.85,34.93,39.03,36.34,22.05-.03,39.55-6.38,52.01-18.86,9.08-9.1,14.95-20.89,18.76-33.47-7.25,5.39-16.23,8.59-25.96,8.59-24.05,0-43.55-19.5-43.55-43.55Z"/>
    <path class="cls-1" d="m704.27,239.57C690.88,107.01,601.91,4.57,494.16,4.57c-31.61,0-61.59,8.81-88.53,24.62-12.17-1.18-31.52-1.78-57.89-1.78l-161.01-.62-.08,47.17c-10.39,5.6-20.44,11.86-30.03,18.75-72.71,52.17-116.11,136.66-116.11,226.02,0,21.01,2.35,41.93,6.98,62.17,1.44,6.29,3.12,12.61,4.99,18.77,8.57,28.19-1.43,59.33-24.88,77.49l-24.71,19.14c7.78,16.5,52.6,100.79,151.27,100.79h103.82c-14.79,14.11-34.93,25.52-61.41,34.81l-25.11,8.81h381.84c24.46,0,41.77-25.44,54.61-53.09.15,15.7-4.85,33.46-8.38,38.42s-10.16,14.96-18.53,14.96l-.1.43c45.67,0,67.62-2,67.62-47.01v-135.39c28.92-39.17,48.75-89.33,55.2-145.05,15.11,13.48,24.64,33.11,24.64,54.91,0,11.33,9.22,20.54,20.54,20.54h40.62c11.33,0,20.54-9.22,20.54-20.54,0-63.8-45.52-117.17-105.8-129.32Zm-611.61,34.28l14.47-19.02c1.63-2.14,3.96-3.47,6.4-3.67l70.08-5.51c14.98-1.18,28.97,5.36,37.8,17.66l.93,1.3c-26.18-14.38-76.03-.43-127.45,13.06-2.24.59-3.73-1.87-2.23-3.83Zm108.1,134.81c-14.25,14.28-33.97,21.52-58.61,21.52h-.34c-20.99-1.6-47.31-36.81-47.56-44.9-.8-25.77,9.37-51.82,24.2-61.95,37.17-25.4,103.2-27.93,106-28.03l4.69-.16v7.84c.05,26.95.14,77.13-28.37,105.68Zm405.93,223.01c11.06-12.14,10.59-33.1,10.13-53.39-.09-3.97-.18-8.08-.18-11.99v-23.7l-8.74,22.02c-11.42,28.78-29.51,67.04-54.58,67.04H221.51c19.12-8.79,34.33-19.15,46.15-31.39,1.52-1.56,3.03-3.21,4.6-5.04l1.67-.88v-1.1c29.33-35.82,31.81-84.89,31.9-140.55,0-.29,0-.59,0-.88,2.26-.56,4.4-1.3,6.41-2.21,2.28-1.04,4.4-2.28,6.36-3.73.13-.04.25-.08.37-.13,25.13-9.04,31.01-34,32.38-44.99,3.69-29.54-9.23-59.5-30.06-69.69-15-7.34-33.14-4.03-52.41,9.22-4.58,3.15-9.23,6.86-13.92,11.12-2.11,1.62-4.29,3.23-6.5,4.8-5,3.56-10.21,6.9-15.46,9.64,3.73-4.79,7.15-9.75,10.21-14.89.42-.69.82-1.38,1.21-2.08,20.61-35.92,24.31-80.51.41-139.26l-21.82,10.28c-12.85,6.05-27.62-3.33-27.59-17.54l.15-83.66h.05l.15-82.8,151.94.58c20.62,0,35.04.38,45.12.9-7.13,4.95-14.01,10.4-20.61,16.33-21.18,19.01-39.51,42.84-53.98,70.24-22.71,42.97-35.95,94.71-35.95,150.38,0,3.6.05,7.18.16,10.75.38,12.39,1.42,24.56,3.07,36.46.03,0,.06-.02.09-.03,17.94-6.08,31.47-2.56,39.64,1.43,12.22,5.97,22.44,17.62,28.8,32.8,5.98,14.3,8.21,30.69,6.27,46.15-2.63,21.03-12.56,37.58-27.63,47.09,33.83,50.67,82.13,85.2,136.76,93.28,8.1,1.2,16.34,1.81,24.69,1.81,56.25,0,107.37-27.92,145.3-73.47v123.84c0,27.34-6.43,35.16-32.79,37.24Zm182.85-251.29h-40.62c-6.33,0-11.48-5.16-11.48-11.48,0-26.79-12.8-50.64-32.61-65.77-13.91-10.61-31.26-16.92-50.06-16.92h-50.91c-5.94,0-10.76-4.83-10.76-10.76v-18.65c0-5.94,4.83-10.76,10.76-10.76h74.32c9.24,0,18.26,1.02,26.92,2.97,54.84,12.31,95.92,61.38,95.92,119.88,0,6.32-5.15,11.48-11.48,11.48Z"/>
  </g>
</svg>