<?xml version="1.0" encoding="UTF-8"?>
<svg id="Capa_2" data-name="Capa 2" xmlns="http://www.w3.org/2000/svg" viewBox="0 0 808 645">
  <defs>
    <style>
      .cls-1 {
        fill: #6d3914;
      }

      .cls-2 {
        fill: #ab7843;
      }

      .cls-3 {
        fill: #4c2b08;
      }
    </style>
  </defs>
  <path class="cls-2" d="m250.62,57.61c-36.37,8.92-61.89,15.34-61.89,15.34-10.34,5.58-20.34,11.81-29.88,18.65-72.35,51.91-115.55,135.99-115.55,224.92,0,20.91,2.34,41.72,6.95,61.87,1.43,6.26,3.1,12.54,4.97,18.68,8.52,28.05-1.42,59.04-24.76,77.11l-24.59,19.04c7.74,16.42,52.34,100.3,150.53,100.3h103.32c6.14,0,148.52,8.57,154.05-15.56,28.8-125.68-93.58-537.43-163.14-520.36Z"/>
  <path class="cls-3" d="m93.94,272.54l14.4-18.92c1.62-2.13,3.94-3.46,6.36-3.65l69.74-5.48c14.91-1.17,28.83,5.33,37.61,17.57l.93,1.3c-26.06-14.31-75.66-.43-126.83,13-2.22.58-3.71-1.86-2.22-3.81Z"/>
  <path class="cls-3" d="m230.22,301.76v-7.8s-4.67.16-4.67.16c-2.78.1-68.49,2.62-105.48,27.89-14.75,10.08-24.88,36.01-24.08,61.65.25,8.05,26.44,43.09,47.33,44.66h.34c24.51.01,44.14-7.19,58.32-21.4,28.37-28.42,28.28-78.35,28.24-105.17Zm-9.01,2.34c-.2-.23-.41-.44-.61-.66.21-.01.42-.03.61-.04,0,.23,0,.47,0,.7Zm-25.6,96.46c-12.4,12.42-29.81,18.73-51.76,18.77-16.11-1.4-37.45-31.04-38.84-36.16-.63-22.35,8.01-45.41,20.16-53.7,6.58-4.5,14.26-8.23,22.38-11.34-1.57,4.49-2.45,9.31-2.45,14.34,0,23.94,19.4,43.34,43.34,43.34,9.68,0,18.62-3.18,25.84-8.55-3.79,12.52-9.63,24.26-18.67,33.31Z"/>
  <path class="cls-2" d="m272.05,327.39c86.56-52.79,123.19,108.44,47.09,123.66l-47.09-123.66Z"/>
  <g>
    <path class="cls-3" d="m222.58,221.56l22.59-11.89c27.68,68.04,16.86,117.64-13.08,156.12,21.76-11.36,51.55-32.64,59.21-35.55-2.02-14.57-4.52-24.35-4.52-39.71,0-119.67,56.1-216.86,140.5-236.41,9.89-2.29,34.53-10.2,34.53-10.2,0,0-15.81-18.31-131.75-18.31l-142.21,1.37-1.06,174.04c-.03,14.13,23,26.57,35.78,20.55Z"/>
    <path class="cls-3" d="m486.08,532.85c-58.08,0-126.02-36.3-158.74-94.23-5.43,4.06-13.51,7.03-21.44,7.57,0,93.46-37.77,158.12-133.37,191.65h373.12c34.13,0,49.93-24.66,61-52.56,0,14.98-1.43,53.21-26.63,53.21,49.7,0,67.66-5.05,67.66-47.8v-255.94c-6.68,125.47-67.08,198.1-161.59,198.1Z"/>
  </g>
  <ellipse class="cls-1" cx="493.57" cy="272.96" rx="210.82" ry="268.46"/>
  <path class="cls-3" d="m587.86,256.04v18.55c0,8.41,6.81,15.22,15.22,15.22h50.65c42.95,0,77.76,34.82,77.76,77.76h0c0,8.8,7.13,15.93,15.93,15.93h40.43c8.8,0,15.93-7.13,15.93-15.93h0c0-70-56.75-126.75-126.75-126.75h-73.96c-8.41,0-15.22,6.81-15.22,15.22Z"/>
</svg>